<svg width="237" height="280" viewBox="0 0 237 280" fill="none" xmlns="http://www.w3.org/2000/svg">
<path d="M161.15 102.711C159.723 86.2858 185.334 74.9723 185.217 92.0205C184.945 132.422 188.305 198.786 194.208 218.974C195.156 222.23 193.222 228.211 186.696 232.7C179.041 237.955 171.413 234.413 165.963 232.078C155.376 227.524 156.674 220.777 156.894 215.925C158.283 184.929 164.134 136.976 161.163 102.711H161.15Z" fill="#CC9D27"/>
<path d="M171.127 218.404C171.205 218.404 171.296 218.404 171.374 218.378C172.074 218.235 172.528 217.547 172.386 216.847C171.283 211.398 171.633 205.52 171.958 199.824C172.178 195.984 172.412 192.027 172.191 188.264C172.152 187.551 171.478 187.019 170.816 187.045C170.102 187.084 169.544 187.707 169.596 188.42C169.804 192.027 169.596 195.751 169.363 199.682C169.025 205.533 168.675 211.592 169.843 217.366C169.973 217.988 170.517 218.417 171.127 218.404Z" fill="#AD722F"/>
<path d="M180.248 1.29206C190.939 3.49768 195.636 13.5527 203.991 23.8284C210.374 31.6648 209.246 46.8836 214.215 53.4875C231.445 76.4001 223.92 96.0821 227.163 103.166C241.188 133.811 238.555 147.797 222.83 157.878C213.903 163.613 206.547 156.62 202.759 159.461C195.272 165.079 191.743 168.037 180.534 168.53C170.284 168.984 156.103 162.303 148.267 163.626C138.406 165.287 127.728 159.734 120.722 153.792C114.871 148.822 109.123 142.076 107.553 134.058C104.946 120.772 114.871 116.296 114.482 109.861C113.846 99.2348 110.109 89.7895 117.349 78.1127C125.821 64.4248 119.606 45.4175 131.867 32.1449C137.848 25.6707 139.146 19.2484 145.581 11.0098C151.783 3.05656 161.085 -2.6651 180.261 1.27908L180.248 1.29206Z" fill="#7DA849"/>
<path d="M112.717 108.083C112.081 97.4572 108.773 91.528 117.362 78.1256C124.173 67.4867 118.646 91.8523 124.381 106.851C131.192 124.677 124.9 137.107 131.971 145.553C137.978 152.728 160.203 161.706 172.399 161.823C185.866 161.952 190.29 163.911 191.069 165.689C191.691 167.103 189.953 168.401 185.892 168.881C171.919 170.528 162.227 164.482 151.77 165.754C139.405 167.272 127.936 163.743 119.814 155.906C113.275 149.614 103.116 140.337 104.491 129.478C106.321 115.089 113.119 114.531 112.73 108.096L112.717 108.083Z" fill="#4977BC"/>
<path d="M170.388 83.5104C174.773 82.4205 177.407 78.2947 178.172 76.9195C178.639 76.0761 178.406 74.9084 177.64 74.2986C176.875 73.6889 175.876 73.8705 175.409 74.7138C174.008 77.2179 171.348 79.9425 168.13 80.0333C165.769 80.0981 162.642 78.9045 161.384 76.0891C160.955 75.142 159.969 74.7138 159.178 75.142C158.399 75.5701 158.101 76.6729 158.529 77.6201C160.527 82.0183 164.952 83.8866 168.468 83.7828C169.142 83.7699 169.778 83.6661 170.388 83.5234V83.5104Z" fill="#4977BC"/>
<path d="M198.438 81.4481C201.734 80.6307 205.198 77.8672 205.781 73.3651C205.911 72.3531 205.301 71.3411 204.419 71.1076C203.55 70.874 202.707 71.4968 202.577 72.5218C202.188 75.5188 199.528 77.4001 197.231 77.8412C194.079 78.477 190.705 76.453 188.604 74.3382C187.903 73.6376 186.878 73.6765 186.333 74.442C185.775 75.2074 185.892 76.3881 186.606 77.1017C187.916 78.4251 192.626 82.6417 198.036 81.5519C198.179 81.5259 198.321 81.487 198.451 81.461L198.438 81.4481Z" fill="#4977BC"/>
<path d="M205.029 134.317C209.414 133.227 212.048 129.101 212.814 127.726C213.281 126.883 213.047 125.715 212.282 125.105C211.516 124.495 210.517 124.677 210.05 125.52C208.649 128.024 205.989 130.749 202.771 130.84C200.41 130.905 197.283 129.711 196.025 126.896C195.597 125.949 194.611 125.52 193.819 125.949C193.041 126.377 192.742 127.48 193.17 128.427C195.169 132.825 199.593 134.693 203.109 134.589C203.783 134.577 204.419 134.473 205.029 134.33V134.317Z" fill="#4977BC"/>
<path d="M185.84 109.407C190.225 108.317 192.859 104.191 193.625 102.816C194.092 101.973 193.858 100.805 193.093 100.195C192.327 99.5853 191.328 99.767 190.861 100.61C189.46 103.114 186.8 105.839 183.582 105.93C181.221 105.995 178.094 104.801 176.836 101.986C176.408 101.038 175.422 100.61 174.63 101.038C173.852 101.467 173.553 102.569 173.981 103.517C175.98 107.915 180.404 109.783 183.92 109.679C184.594 109.666 185.23 109.563 185.84 109.42V109.407Z" fill="#4977BC"/>
<path d="M213.89 107.344C217.186 106.527 220.65 103.763 221.234 99.2613C221.364 98.2493 220.754 97.2373 219.871 97.0168C219.002 96.7832 218.159 97.406 218.029 98.431C217.64 101.428 214.98 103.309 212.684 103.75C209.531 104.386 206.158 102.362 204.056 100.247C203.355 99.5468 202.33 99.5857 201.785 100.351C201.227 101.117 201.344 102.297 202.058 103.011C203.368 104.334 208.078 108.551 213.488 107.461C213.631 107.435 213.774 107.396 213.903 107.37L213.89 107.344Z" fill="#4977BC"/>
<path d="M157.829 108.655C162.214 107.565 164.848 103.439 165.613 102.064C166.08 101.221 165.847 100.053 165.081 99.4432C164.316 98.8334 163.317 99.015 162.85 99.8584C161.448 102.362 158.789 105.087 155.571 105.178C153.21 105.243 150.083 104.049 148.824 101.234C148.396 100.287 147.41 99.8584 146.619 100.287C145.84 100.715 145.542 101.817 145.97 102.765C147.968 107.163 152.392 109.031 155.908 108.927C156.583 108.914 157.219 108.811 157.829 108.668V108.655Z" fill="#4977BC"/>
<path d="M174.565 136.977C178.951 135.887 181.584 131.762 182.35 130.386C182.817 129.543 182.583 128.375 181.818 127.765C181.052 127.156 180.053 127.337 179.586 128.181C178.185 130.685 175.525 133.409 172.308 133.5C169.947 133.565 166.82 132.371 165.548 129.556C165.12 128.609 164.134 128.181 163.343 128.609C162.564 129.037 162.266 130.14 162.694 131.087C164.692 135.485 169.116 137.353 172.632 137.25C173.307 137.237 173.943 137.133 174.552 136.99L174.565 136.977Z" fill="#4977BC"/>
<path d="M56.7979 146.461C55.3708 130.036 80.982 118.722 80.8652 135.77C80.5928 176.159 83.9531 242.536 89.8564 262.724C90.8035 265.98 88.8703 271.961 82.3443 276.45C74.6895 281.705 67.0606 278.163 61.6114 275.828C51.0244 271.274 52.3218 264.527 52.5424 259.675C53.9306 228.679 59.782 180.726 56.8109 146.461H56.7979Z" fill="#CC9D27"/>
<path d="M66.7752 262.139C66.853 262.139 66.9439 262.139 67.0217 262.113C67.7223 261.97 68.1764 261.283 68.0337 260.582C66.9309 255.133 67.2812 249.256 67.6056 243.56C67.8261 239.719 68.0597 235.762 67.8391 232C67.8002 231.286 67.1255 230.754 66.4638 230.78C65.7502 230.819 65.1923 231.442 65.2442 232.155C65.4518 235.762 65.2442 239.486 65.0107 243.417C64.6734 249.269 64.3231 255.328 65.4908 261.101C65.6205 261.724 66.1654 262.152 66.7752 262.139Z" fill="#AD722F"/>
<path d="M75.8831 45.0284C86.5739 47.234 91.2706 57.2891 99.6261 67.5647C106.009 75.4011 104.881 90.62 109.85 97.2239C127.08 120.136 119.555 139.818 122.798 146.902C136.823 177.548 134.189 191.534 118.465 201.615C109.538 207.349 102.182 200.356 98.3935 203.198C90.9073 208.816 87.3783 211.774 76.1686 212.267C65.9189 212.721 51.738 206.039 43.9016 207.362C34.0411 209.023 23.3633 203.47 16.3572 197.528C10.5058 192.559 4.75822 185.812 3.18833 177.794C0.580502 164.508 10.5058 160.032 10.1166 153.597C9.48085 142.971 5.74426 133.526 12.9839 121.849C21.4561 108.161 15.2414 89.1539 27.5021 75.8812C33.4832 69.407 34.7807 62.9848 41.2159 54.7461C47.4176 46.7929 56.7202 41.0712 75.8961 45.0154L75.8831 45.0284Z" fill="#7DA849"/>
<path d="M8.35209 151.819C7.71635 141.194 4.40791 135.264 12.9969 121.862C19.8084 111.223 14.2813 135.589 20.016 150.587C26.8274 168.414 20.5349 180.843 27.6059 189.289C33.613 196.464 55.8379 205.442 68.0337 205.559C81.501 205.689 85.9252 207.648 86.7037 209.425C87.3264 210.839 85.5879 212.137 81.5269 212.617C67.5537 214.265 57.8489 208.219 47.4046 209.49C35.0401 211.008 23.5709 207.479 15.449 199.643C8.90998 193.35 -1.24887 184.073 0.126401 173.214C1.95577 158.826 8.75429 158.268 8.36506 151.832L8.35209 151.819Z" fill="#4977BC"/>
<path d="M66.0227 127.247C70.408 126.157 73.0418 122.031 73.8073 120.656C74.2743 119.812 74.0408 118.645 73.2753 118.035C72.5098 117.425 71.5108 117.607 71.0437 118.45C69.6425 120.954 66.9828 123.679 63.7652 123.77C61.4039 123.834 58.2771 122.641 57.0186 119.825C56.5904 118.878 55.6044 118.45 54.8129 118.878C54.0345 119.306 53.7361 120.409 54.1642 121.356C56.1623 125.755 60.5865 127.623 64.1025 127.519C64.7772 127.506 65.4129 127.402 66.0227 127.26V127.247Z" fill="#4977BC"/>
<path d="M94.0731 125.183C97.3685 124.366 100.833 121.602 101.417 117.1C101.546 116.088 100.936 115.076 100.054 114.856C99.1849 114.622 98.3416 115.245 98.2119 116.27C97.8227 119.267 95.1629 121.148 92.8665 121.589C89.7137 122.225 86.3404 120.201 84.2386 118.086C83.538 117.386 82.513 117.425 81.9681 118.19C81.4102 118.955 81.527 120.136 82.2406 120.85C83.551 122.173 88.2606 126.39 93.6709 125.3C93.8136 125.274 93.9563 125.235 94.0861 125.209L94.0731 125.183Z" fill="#4977BC"/>
<path d="M100.677 178.066C105.062 176.976 107.696 172.85 108.462 171.475C108.929 170.632 108.695 169.464 107.93 168.854C107.164 168.245 106.165 168.426 105.698 169.269C104.297 171.774 101.637 174.498 98.4195 174.589C96.0582 174.654 92.9314 173.46 91.6729 170.645C91.2447 169.698 90.2587 169.269 89.4672 169.698C88.6888 170.126 88.3904 171.229 88.8185 172.176C90.8166 176.574 95.2408 178.442 98.7568 178.338C99.4315 178.326 100.067 178.222 100.677 178.079V178.066Z" fill="#4977BC"/>
<path d="M81.488 153.143C85.8733 152.053 88.5071 147.928 89.2726 146.552C89.7397 145.709 89.5061 144.541 88.7407 143.931C87.9752 143.322 86.9761 143.503 86.5091 144.347C85.1079 146.851 82.4481 149.575 79.2305 149.666C76.8692 149.731 73.7424 148.537 72.4839 145.722C72.0557 144.775 71.0697 144.347 70.2783 144.775C69.4998 145.203 69.2014 146.306 69.6296 147.253C71.6276 151.651 76.0518 153.519 79.5678 153.416C80.2425 153.403 80.8782 153.299 81.488 153.156V153.143Z" fill="#4977BC"/>
<path d="M109.525 151.081C112.821 150.263 116.272 147.5 116.869 142.998C116.999 141.986 116.389 140.974 115.507 140.753C114.637 140.52 113.794 141.142 113.664 142.167C113.275 145.164 110.615 147.046 108.319 147.487C105.166 148.122 101.793 146.098 99.6909 143.984C98.9903 143.283 97.9653 143.322 97.4204 144.087C96.8625 144.853 96.9793 146.034 97.6929 146.747C99.0033 148.071 103.713 152.287 109.123 151.197C109.266 151.171 109.409 151.132 109.538 151.107L109.525 151.081Z" fill="#4977BC"/>
<path d="M53.4636 152.39C57.8489 151.3 60.4827 147.175 61.2482 145.799C61.7153 144.956 61.4817 143.788 60.7162 143.179C59.9508 142.569 58.9517 142.75 58.4847 143.594C57.0835 146.098 54.4237 148.822 51.2061 148.913C48.8448 148.978 45.718 147.784 44.4595 144.969C44.0313 144.022 43.0453 143.594 42.2539 144.022C41.4754 144.45 41.177 145.553 41.6052 146.5C43.6032 150.898 48.0274 152.767 51.5434 152.663C52.2181 152.65 52.8538 152.546 53.4636 152.403V152.39Z" fill="#4977BC"/>
<path d="M70.2005 180.726C74.5858 179.636 77.2195 175.511 77.985 174.135C78.4521 173.292 78.2186 172.124 77.4531 171.514C76.6876 170.905 75.6886 171.086 75.2215 171.93C73.8203 174.434 71.1606 177.158 67.9429 177.249C65.5816 177.314 62.4548 176.12 61.1963 173.305C60.7682 172.358 59.7821 171.93 58.9907 172.358C58.2122 172.786 57.9138 173.889 58.342 174.836C60.34 179.234 64.7642 181.102 68.2803 180.999C68.9549 180.986 69.5907 180.882 70.2005 180.739V180.726Z" fill="#4977BC"/>
</svg>
