<svg width="500" height="199" viewBox="0 0 500 199" fill="none" xmlns="http://www.w3.org/2000/svg">

<g id="&#229;&#133;&#177;&#230;&#156;&#137;&#230;&#150;&#189;&#232;&#168;&#173;&#227;&#131;&#187;&#232;&#168;&#173;&#229;&#130;&#153;&#232;&#169;&#179;&#231;&#180;&#176;&#239;&#188;&#136;&#227;&#129;&#187;&#227;&#129;&#169;&#227;&#129;&#187;&#227;&#129;&#169;&#227;&#129;&#174;&#230;&#163;&#174;&#239;&#188;&#137;_sp">
<rect width="720" height="7261.13" transform="translate(-110 -1306)" fill="white"/>
<g id="Frame 769">
<rect width="720" height="2148.13" transform="translate(-110 -1306)" fill="#D6B156"/>
<g id="Frame 787">
<rect x="-75" y="-580" width="650" height="1312.13" rx="50" fill="white"/>
<g id="_&#227;&#131;&#172;&#227;&#130;&#164;&#227;&#131;&#164;&#227;&#131;&#188;_2" clip-path="url(#clip0_0_1)">
<path id="Vector" d="M496.495 130.613C490.994 121.191 473.857 107.368 458.151 94.6942C440.731 80.639 417.732 66.6999 402.786 61.0985C371.296 49.289 336.765 70.5332 311.06 80.5615C288.254 89.4541 277.058 87.5698 245.709 77.3736C232.683 73.1403 216.938 67.4098 190.988 82.3813C157.914 101.457 121.785 107.42 102.742 122.043C95.9387 127.27 81.2245 130.006 64.1524 130.807C47.1189 131.594 -0.386635 130.497 -9.64107e-05 143.997C0.386442 157.497 8.73566 169.371 36.051 173.424C51.8476 175.773 68.8939 171.707 69.5252 176.663C72.8108 202.27 93.3102 191.919 190.473 196.294C287.636 200.67 412.346 195.739 442.741 196.036C469.876 196.294 480.299 179.993 473.458 172.133C466.461 164.092 478.766 157.639 485.376 155.626C502.384 150.463 502.281 140.499 496.495 130.587V130.613Z" fill="#9EC3BC"/>
<g id="Group">
<path id="Vector_2" d="M420.707 41.2238C420.836 34.8609 413.209 35.3514 413.634 41.6239C414.639 56.4793 414.884 82.473 414.008 90.075C413.634 93.3532 424.547 93.0177 423.594 88.9263C421.532 80.0724 420.385 57.2021 420.707 41.2238Z" fill="#C98841"/>
<g id="Group_2">
<path id="Vector_3" d="M415.838 0.00043058C414.626 0.0649632 414.021 4.46609 412.191 10.829C410.336 17.2435 409.743 18.9085 408.996 20.9606C408.545 22.1996 410.117 21.3865 410.98 20.6767C411.457 20.2895 411.985 21.1155 410.516 23.4258C408.867 26.0071 408.223 27.4655 406.909 29.9048C405.594 32.3442 405.736 35.4675 407.604 34.4092C409.537 33.3121 410.606 34.7706 409.215 36.8098C407.823 38.849 405.131 41.8433 404.126 44.4247C402.631 48.2837 404.345 49.5098 406.599 47.548C407.914 46.4123 408.081 49.2388 407.076 50.4778C405.04 52.9817 404.061 54.5046 402.347 58.1056C400.93 61.0612 400.286 64.7524 402.386 65.1396C404.499 65.5268 406.806 63.3456 407.901 65.9656C408.996 68.5857 410.001 68.6889 411.882 66.2367C412.848 64.9718 413.39 62.9971 414.639 66.4561C415.889 69.915 418.221 69.2826 419.085 67.566C419.948 65.8495 419.896 63.6683 421.468 65.4236C423.04 67.1788 424.676 70.0828 425.965 68.4308C427.253 66.7787 429.057 63.849 431.222 65.772C432.923 67.295 435.049 67.7596 435.061 65.0105C435.074 62.3647 434.056 60.0415 431.209 55.3307C428.851 51.4329 427.099 49.897 427.498 48.1805C427.833 46.6962 429.302 48.6064 430.307 49.3937C433.644 52.0008 431.415 44.5666 429.586 42.0886C426.004 37.2228 423.504 32.4216 426.661 34.8738C429.817 37.3261 427.911 30.4985 425.694 27.7236C421.739 22.7804 419.974 19.8248 422.1 20.7154C425.153 22.006 423.001 19.3215 420.644 13.1264C418.337 7.13773 417.113 -0.064102 415.838 0.00043058Z" fill="#7C9C81"/>
<g id="Group_3">
<path id="Vector_4" d="M416.25 21.7751C416.018 21.7751 415.837 21.7105 415.734 21.646C414.613 21.0523 414.394 18.6001 415.167 15.5283C415.232 15.2573 415.515 15.1024 415.786 15.1669C416.056 15.2315 416.224 15.5154 416.146 15.7864C415.373 18.8324 415.811 20.5489 416.211 20.7554C416.262 20.7813 416.404 20.7167 416.559 20.536C416.713 20.1359 416.688 18.1354 416.675 16.1994V15.8897C416.675 15.6057 416.894 15.3863 417.164 15.3863C417.448 15.3863 417.667 15.6057 417.667 15.8897V16.1994C417.706 19.6584 417.705 20.7684 417.332 21.1814C416.92 21.646 416.533 21.7751 416.237 21.7751H416.25Z" fill="#677F69"/>
<path id="Vector_5" d="M412.822 30.9788C412.487 30.9788 412.204 30.8368 412.036 30.5787C411.56 29.8559 412.139 28.4362 412.938 26.668C413.054 26.4099 413.157 26.1776 413.222 26.0227C413.325 25.7646 413.621 25.6355 413.879 25.7388C414.136 25.842 414.265 26.1389 414.162 26.397C414.098 26.5648 413.995 26.7971 413.866 27.081C413.595 27.6747 412.796 29.43 412.874 29.9592C413.518 29.8818 413.917 28.8363 414.343 27.7393C414.484 27.365 414.626 27.0036 414.781 26.6422C414.897 26.3841 415.193 26.2679 415.451 26.3841C415.708 26.5003 415.824 26.7971 415.708 27.0552C415.554 27.3908 415.425 27.7522 415.283 28.1007C414.742 29.5075 414.188 30.9659 412.835 30.9788H412.822Z" fill="#677F69"/>
<path id="Vector_6" d="M421.339 30.9385C419.844 30.9514 418.388 28.6798 417.821 26.9633C417.731 26.6922 417.873 26.4083 418.143 26.3309C418.414 26.2405 418.697 26.3825 418.775 26.6535C419.367 28.4733 420.746 30.1512 421.455 29.9189C421.506 29.906 421.596 29.8672 421.622 29.8156C421.79 29.351 420.54 27.3118 419.999 26.447C419.857 26.2147 419.921 25.9049 420.166 25.7501C420.398 25.6081 420.707 25.6726 420.862 25.9179C422.279 28.2152 422.872 29.3639 422.575 30.1641C422.447 30.4997 422.189 30.7449 421.777 30.874C421.635 30.9256 421.48 30.9514 421.339 30.9514V30.9385Z" fill="#677F69"/>
<path id="Vector_7" d="M410.516 44.6319C410.297 44.6319 410.091 44.5931 409.911 44.4899C409.511 44.2705 409.254 43.9865 409.164 43.6252C408.983 42.8895 409.486 42.128 410.13 41.1729C410.735 40.2695 411.418 39.2369 411.663 38.0495C411.715 37.7785 411.985 37.5978 412.256 37.6494C412.526 37.7011 412.707 37.9721 412.655 38.2431C412.372 39.6241 411.599 40.7857 410.967 41.7279C410.542 42.3603 410.065 43.0831 410.143 43.3799C410.156 43.4574 410.246 43.5348 410.388 43.5993C410.452 43.6252 410.632 43.651 410.955 43.509C411.972 43.0702 413.261 41.5988 413.789 39.6499C413.866 39.3789 414.137 39.224 414.408 39.2886C414.678 39.366 414.833 39.637 414.768 39.9081C414.137 42.27 412.565 43.9091 411.367 44.4383C411.07 44.5673 410.787 44.6319 410.529 44.6319H410.516Z" fill="#677F69"/>
<path id="Vector_8" d="M425.243 45.2375C424.998 45.2375 424.741 45.1859 424.457 45.0826C423.233 44.6309 421.571 43.0692 420.824 40.746C420.734 40.475 420.888 40.1911 421.146 40.1136C421.416 40.0233 421.7 40.1782 421.777 40.4363C422.396 42.3594 423.774 43.7533 424.805 44.1405C425.127 44.2695 425.321 44.2437 425.372 44.205C425.514 44.1275 425.591 44.0372 425.604 43.9727C425.668 43.6758 425.153 42.9789 424.689 42.3723C424.019 41.4688 423.182 40.3459 422.821 38.9778C422.756 38.7068 422.911 38.4358 423.182 38.3583C423.452 38.2938 423.723 38.4487 423.8 38.7197C424.096 39.8942 424.844 40.888 425.501 41.7527C426.197 42.682 426.738 43.4177 426.596 44.1534C426.519 44.5147 426.287 44.8245 425.9 45.0568C425.707 45.173 425.488 45.2246 425.243 45.2246V45.2375Z" fill="#677F69"/>
<path id="Vector_9" d="M418.002 47.3159C417.899 47.3159 417.796 47.3159 417.693 47.2901C415.992 46.9674 415.734 43.9215 416.108 41.9597C416.159 41.6887 416.417 41.508 416.7 41.5596C416.971 41.6112 417.151 41.8693 417.1 42.1533C416.752 44.0376 417.151 46.1672 417.886 46.3092C417.937 46.3092 418.04 46.335 418.079 46.3092C418.453 45.9736 418.324 43.5859 418.272 42.5663C418.259 42.2824 418.466 42.05 418.749 42.0371C419.007 42.0371 419.264 42.2307 419.277 42.5147C419.419 45.2121 419.38 46.5028 418.736 47.0707C418.53 47.2514 418.285 47.3417 418.002 47.3417V47.3159Z" fill="#677F69"/>
<path id="Vector_10" d="M406.097 59.835C405.877 59.835 405.671 59.7963 405.491 59.693C405.092 59.4736 404.834 59.1897 404.744 58.8283C404.563 58.0926 405.066 57.3311 405.71 56.376C406.316 55.4726 406.998 54.4401 407.243 53.2527C407.295 52.9816 407.565 52.8009 407.836 52.8526C408.107 52.9042 408.287 53.1752 408.235 53.4463C407.952 54.8273 407.179 55.9888 406.547 56.931C406.122 57.5634 405.646 58.2862 405.723 58.5831C405.736 58.6605 405.826 58.7379 405.968 58.8025C406.032 58.8283 406.212 58.8541 406.535 58.7121C407.552 58.2733 408.841 56.802 409.369 54.8531C409.447 54.582 409.717 54.4272 409.988 54.4917C410.258 54.5691 410.413 54.8402 410.348 55.1112C409.717 57.4731 408.145 59.1122 406.947 59.6414C406.651 59.7705 406.367 59.835 406.109 59.835H406.097Z" fill="#677F69"/>
<path id="Vector_11" d="M428.632 62.3781C428.387 62.3781 428.129 62.3265 427.833 62.2233C426.609 61.7715 424.947 60.2098 424.2 57.8867C424.11 57.6156 424.264 57.3317 424.522 57.2542C424.792 57.1639 425.076 57.3188 425.153 57.5769C425.772 59.5 427.15 60.8939 428.181 61.2811C428.503 61.3972 428.696 61.3843 428.748 61.3456C428.89 61.2682 428.967 61.1778 428.98 61.1133C429.044 60.8164 428.529 60.1195 428.065 59.5129C427.395 58.6094 426.558 57.4866 426.197 56.1185C426.132 55.8474 426.287 55.5764 426.558 55.499C426.828 55.4344 427.099 55.5893 427.176 55.8603C427.472 57.0348 428.22 58.0286 428.877 58.8934C429.573 59.8226 430.114 60.5583 429.972 61.294C429.895 61.6554 429.663 61.9651 429.276 62.1974C429.083 62.3136 428.864 62.3652 428.619 62.3652L428.632 62.3781Z" fill="#677F69"/>
<path id="Vector_12" d="M417.332 63.644C417.229 63.644 417.126 63.644 417.023 63.6182C415.322 63.2955 415.064 60.2496 415.438 58.2878C415.489 58.0168 415.76 57.8361 416.031 57.8877C416.301 57.9393 416.481 58.1975 416.43 58.4814C416.082 60.3658 416.481 62.4953 417.216 62.6373C417.267 62.6373 417.37 62.6631 417.409 62.6373C417.783 62.3017 417.654 59.914 417.602 58.8944C417.59 58.6105 417.796 58.3782 418.079 58.3653C418.337 58.3524 418.595 58.5589 418.607 58.8428C418.749 61.5403 418.71 62.8309 418.066 63.3988C417.86 63.5795 417.615 63.6698 417.332 63.6698V63.644Z" fill="#677F69"/>
<path id="Vector_13" d="M413.08 54.9201C412.874 54.9201 412.706 54.8684 412.59 54.8039C412.281 54.6361 412.075 54.4038 412.011 54.1199C411.869 53.552 412.242 52.997 412.681 52.3388C413.08 51.7451 413.531 51.061 413.686 50.2995C413.737 50.0285 414.008 49.8478 414.278 49.8994C414.549 49.9511 414.729 50.2221 414.678 50.4931C414.484 51.4482 413.956 52.2484 413.518 52.8937C413.299 53.2164 412.977 53.7069 412.99 53.8746C412.99 53.8746 413.016 53.9005 413.067 53.9263C413.389 54.0037 414.665 53.0615 415.116 51.3708C415.193 51.0997 415.464 50.9449 415.734 51.0094C416.005 51.0868 416.159 51.3579 416.095 51.6289C415.657 53.268 414.549 54.4167 413.711 54.7781C413.466 54.8813 413.26 54.9201 413.093 54.9201H413.08Z" fill="#677F69"/>
<path id="Vector_14" d="M422.422 54.8172C422.241 54.8172 422.035 54.7785 421.79 54.6881C420.94 54.3396 419.819 53.2168 419.342 51.5777C419.265 51.3066 419.419 51.0356 419.69 50.9581C419.948 50.8807 420.231 51.0356 420.309 51.3066C420.798 52.9974 422.099 53.9008 422.422 53.8105C422.473 53.7847 422.486 53.7589 422.486 53.7589C422.486 53.6169 422.151 53.1264 421.932 52.8038C421.494 52.1714 420.94 51.3841 420.721 50.429C420.656 50.1579 420.824 49.8869 421.107 49.8224C421.378 49.7578 421.649 49.9256 421.713 50.2096C421.88 50.9711 422.344 51.6422 422.757 52.2359C423.208 52.8812 423.594 53.4362 423.465 54.0041C423.401 54.3009 423.208 54.5332 422.898 54.701C422.782 54.7656 422.615 54.8172 422.409 54.8301L422.422 54.8172Z" fill="#677F69"/>
</g>
</g>
</g>
<g id="Group_4">
<path id="Vector_15" d="M370.806 60.2491C370.947 53.0731 362.353 53.6281 362.843 60.7008C363.977 77.4406 364.247 106.738 363.255 115.308C362.83 119.012 375.135 118.625 374.053 114.018C371.733 104.041 370.432 78.2666 370.806 60.262V60.2491Z" fill="#C98841"/>
<g id="Group_5">
<path id="Vector_16" d="M365.317 13.7973C363.951 13.8747 363.268 18.8308 361.207 25.9939C359.119 33.2345 358.449 35.1059 357.612 37.4162C357.096 38.8101 358.875 37.8937 359.841 37.0935C360.369 36.6547 360.975 37.5969 359.325 40.1911C357.47 43.108 356.749 44.7471 355.254 47.4962C353.759 50.2453 353.927 53.7687 356.04 52.5684C358.217 51.3294 359.429 52.9685 357.857 55.2788C356.285 57.5762 353.257 60.9448 352.123 63.8616C350.448 68.2111 352.368 69.5921 354.906 67.3851C356.388 66.0945 356.568 69.2824 355.434 70.6892C353.141 73.5157 352.046 75.2194 350.1 79.2849C348.502 82.6148 347.768 86.7707 350.152 87.2095C352.522 87.6483 355.138 85.1832 356.375 88.1388C357.612 91.0944 358.746 91.2105 360.859 88.4485C361.954 87.0159 362.56 84.796 363.964 88.6938C365.368 92.5915 367.997 91.8817 368.976 89.9328C369.955 87.9968 369.891 85.5446 371.656 87.5193C373.421 89.5069 375.277 92.7722 376.72 90.9137C378.163 89.0552 380.199 85.7511 382.634 87.9194C384.554 89.6359 386.937 90.1522 386.963 87.0675C386.976 84.0861 385.829 81.4661 382.621 76.1615C379.967 71.7604 377.995 70.0438 378.446 68.1079C378.833 66.4429 380.482 68.5854 381.616 69.476C385.378 72.4187 382.866 64.0423 380.804 61.2545C376.758 55.7822 373.95 50.3614 377.519 53.1234C381.088 55.8854 378.923 48.1802 376.423 45.0697C371.965 39.507 369.981 36.1642 372.365 37.171C375.805 38.6294 373.383 35.6093 370.728 28.6139C368.151 21.8509 366.773 13.7327 365.33 13.7973H365.317Z" fill="#7C9C81"/>
<g id="Group_6">
<path id="Vector_17" d="M365.781 38.3321C365.523 38.3321 365.317 38.2547 365.201 38.1902C363.938 37.5319 363.694 34.757 364.57 31.2981C364.647 30.9883 364.956 30.8076 365.265 30.8851C365.575 30.9625 365.755 31.2723 365.678 31.582C364.815 35.0152 365.304 36.9511 365.742 37.1835C365.794 37.2093 365.948 37.1447 366.142 36.9382C366.309 36.4865 366.296 34.2279 366.27 32.0467V31.6982C366.27 31.3884 366.515 31.1303 366.825 31.1303C367.134 31.1303 367.391 31.3755 367.391 31.6982V32.0467C367.43 35.9444 367.43 37.1964 367.018 37.661C366.554 38.1902 366.129 38.3321 365.781 38.3321Z" fill="#677F69"/>
<path id="Vector_18" d="M361.915 48.7095C361.529 48.7095 361.219 48.5546 361.026 48.2577C360.498 47.4446 361.142 45.8442 362.044 43.8437C362.173 43.5469 362.289 43.3016 362.366 43.1209C362.482 42.8241 362.804 42.6821 363.101 42.7983C363.397 42.9144 363.539 43.2371 363.423 43.534C363.345 43.7146 363.229 43.9857 363.088 44.3083C362.778 44.9795 361.889 46.9542 361.967 47.5608C362.688 47.4704 363.139 46.2959 363.616 45.0569C363.771 44.6439 363.938 44.218 364.118 43.8179C364.247 43.534 364.582 43.4049 364.866 43.534C365.149 43.663 365.278 43.9986 365.149 44.2825C364.982 44.6697 364.827 45.0698 364.672 45.4699C364.067 47.0574 363.436 48.6966 361.915 48.7095Z" fill="#677F69"/>
<path id="Vector_19" d="M371.514 48.6557C369.827 48.6686 368.19 46.1131 367.559 44.1771C367.456 43.8803 367.623 43.5576 367.92 43.4544C368.216 43.3511 368.538 43.5189 368.641 43.8157C369.311 45.8679 370.857 47.7651 371.669 47.4941C371.733 47.4683 371.837 47.4296 371.849 47.3779C372.043 46.8488 370.625 44.5643 370.02 43.5834C369.852 43.3124 369.943 42.9639 370.2 42.7961C370.471 42.6283 370.819 42.7187 370.986 42.9768C372.584 45.5581 373.241 46.8617 372.919 47.7651C372.777 48.1523 372.481 48.4234 372.017 48.5653C371.849 48.617 371.682 48.6428 371.514 48.6428V48.6557Z" fill="#677F69"/>
<path id="Vector_20" d="M359.313 64.0951C359.055 64.0951 358.823 64.0435 358.63 63.9402C358.179 63.695 357.895 63.3724 357.792 62.9593C357.586 62.1333 358.153 61.2815 358.875 60.1973C359.558 59.1777 360.331 58.0161 360.601 56.6739C360.666 56.3641 360.962 56.1705 361.271 56.235C361.58 56.2996 361.774 56.5964 361.709 56.9062C361.4 58.455 360.524 59.7714 359.815 60.8298C359.339 61.5396 358.797 62.3527 358.888 62.6883C358.913 62.7657 359.003 62.8561 359.158 62.9464C359.223 62.9852 359.442 62.9981 359.802 62.8432C360.949 62.3398 362.405 60.6878 362.998 58.4937C363.075 58.1839 363.397 58.0161 363.693 58.0936C364.003 58.171 364.17 58.4808 364.093 58.7905C363.384 61.4622 361.606 63.3078 360.253 63.8886C359.918 64.0306 359.596 64.108 359.313 64.108V64.0951Z" fill="#677F69"/>
<path id="Vector_21" d="M375.908 64.7759C375.637 64.7759 375.341 64.7243 375.019 64.5952C373.64 64.0789 371.772 62.3237 370.922 59.7036C370.819 59.4068 370.986 59.0841 371.282 58.9938C371.579 58.8905 371.901 59.0583 371.991 59.3552C372.687 61.5235 374.246 63.098 375.405 63.5369C375.779 63.6788 375.985 63.653 376.05 63.6014C376.204 63.5111 376.294 63.4207 376.307 63.3304C376.372 62.9948 375.792 62.2075 375.277 61.5234C374.516 60.5038 373.576 59.239 373.176 57.7031C373.099 57.3934 373.28 57.0836 373.589 57.0062C373.885 56.9287 374.207 57.1094 374.284 57.4192C374.619 58.7356 375.457 59.8585 376.191 60.8394C376.977 61.8848 377.583 62.7109 377.428 63.5498C377.351 63.9628 377.08 64.3113 376.642 64.5694C376.436 64.6985 376.179 64.763 375.908 64.763V64.7759Z" fill="#677F69"/>
<path id="Vector_22" d="M367.765 67.1144C367.649 67.1144 367.533 67.1144 367.417 67.0756C365.498 66.7143 365.214 63.2811 365.627 61.0612C365.678 60.7515 365.987 60.5449 366.284 60.6095C366.593 60.6611 366.799 60.9709 366.735 61.2677C366.335 63.3844 366.786 65.7979 367.611 65.9528C367.675 65.9528 367.791 65.9786 367.83 65.9528C368.255 65.5785 368.113 62.8939 368.049 61.7453C368.036 61.4355 368.268 61.1645 368.59 61.1516C368.873 61.1516 369.17 61.371 369.183 61.6936C369.337 64.7267 369.299 66.1851 368.577 66.8175C368.345 67.0111 368.075 67.1144 367.752 67.1273L367.765 67.1144Z" fill="#677F69"/>
<path id="Vector_23" d="M354.326 81.2318C354.069 81.2318 353.837 81.1802 353.644 81.077C353.193 80.8317 352.909 80.5091 352.806 80.0961C352.6 79.27 353.167 78.4182 353.888 77.3341C354.571 76.3145 355.344 75.1529 355.615 73.8106C355.679 73.5008 355.976 73.3072 356.285 73.3718C356.594 73.4363 356.787 73.7332 356.723 74.0429C356.414 75.5917 355.538 76.9082 354.829 77.9665C354.352 78.6763 353.811 79.4895 353.901 79.825C353.927 79.9025 354.017 79.9928 354.172 80.0832C354.236 80.1219 354.455 80.1348 354.816 79.9799C355.963 79.4766 357.419 77.8245 358.011 75.6304C358.089 75.3207 358.411 75.1529 358.707 75.2303C359.016 75.3077 359.184 75.6175 359.107 75.9273C358.398 78.5989 356.62 80.4445 355.267 81.0253C354.932 81.1673 354.61 81.2447 354.326 81.2447V81.2318Z" fill="#677F69"/>
<path id="Vector_24" d="M379.735 84.1001C379.465 84.1001 379.168 84.0485 378.846 83.9194C377.467 83.4032 375.599 81.6479 374.749 79.0278C374.646 78.731 374.813 78.4083 375.11 78.318C375.406 78.2147 375.728 78.3825 375.818 78.6794C376.514 80.8477 378.073 82.4223 379.233 82.8611C379.606 83.0031 379.812 82.9772 379.877 82.9256C380.031 82.8353 380.122 82.7449 380.135 82.6546C380.199 82.319 379.619 81.5317 379.104 80.8477C378.344 79.8281 377.403 78.5632 377.004 77.0273C376.926 76.7176 377.107 76.4078 377.416 76.3304C377.712 76.2529 378.034 76.4336 378.112 76.7434C378.447 78.0599 379.284 79.1827 380.019 80.1636C380.805 81.2091 381.41 82.0351 381.255 82.874C381.178 83.287 380.908 83.6355 380.47 83.8936C380.263 84.0227 380.006 84.0872 379.735 84.0872V84.1001Z" fill="#677F69"/>
<path id="Vector_25" d="M366.992 85.5167C366.876 85.5167 366.76 85.5167 366.644 85.478C364.724 85.1166 364.441 81.6835 364.853 79.4635C364.905 79.1538 365.214 78.9473 365.51 79.0118C365.819 79.0634 366.026 79.3732 365.961 79.6701C365.562 81.7867 366.013 84.2002 366.837 84.3551C366.902 84.3551 367.018 84.3809 367.056 84.3551C367.482 83.9808 367.34 81.2963 367.275 80.1476C367.262 79.8378 367.494 79.5668 367.817 79.5539C368.113 79.541 368.396 79.7733 368.409 80.096C368.564 83.129 368.525 84.5874 367.804 85.2199C367.572 85.4135 367.301 85.5167 366.979 85.5296L366.992 85.5167Z" fill="#677F69"/>
<path id="Vector_26" d="M362.211 75.685C361.979 75.685 361.786 75.6204 361.657 75.5559C361.309 75.3623 361.077 75.1042 361 74.7815C360.845 74.1491 361.271 73.5038 361.76 72.7681C362.211 72.097 362.727 71.3226 362.894 70.4707C362.959 70.161 363.255 69.9674 363.564 70.0319C363.873 70.0965 364.067 70.3933 364.002 70.7031C363.783 71.7872 363.178 72.6907 362.701 73.4134C362.456 73.7748 362.082 74.3298 362.095 74.5105C362.095 74.5105 362.121 74.5363 362.185 74.5621C362.546 74.6396 363.989 73.5941 364.492 71.684C364.569 71.3742 364.878 71.2064 365.188 71.2839C365.497 71.3613 365.664 71.6711 365.587 71.9808C365.097 73.8393 363.848 75.1171 362.907 75.5301C362.636 75.6463 362.404 75.6979 362.198 75.6979L362.211 75.685Z" fill="#677F69"/>
<path id="Vector_27" d="M372.738 75.5678C372.545 75.5678 372.3 75.5291 372.03 75.4129C371.076 75.0257 369.801 73.7609 369.272 71.9153C369.182 71.6184 369.363 71.2958 369.659 71.2054C369.955 71.1151 370.277 71.2958 370.368 71.5926C370.922 73.4899 372.378 74.5224 372.751 74.4191C372.816 74.3804 372.828 74.3546 372.828 74.3546C372.828 74.1997 372.455 73.6447 372.197 73.2834C371.695 72.5735 371.076 71.683 370.844 70.5988C370.78 70.2891 370.973 69.9922 371.269 69.9148C371.579 69.8502 371.875 70.0438 371.952 70.3407C372.146 71.1925 372.674 71.954 373.138 72.6251C373.64 73.3479 374.078 73.9803 373.937 74.6256C373.859 74.9612 373.64 75.2193 373.292 75.4129C373.163 75.4904 372.983 75.5549 372.738 75.5549V75.5678Z" fill="#677F69"/>
</g>
</g>
</g>
<g id="Group_7">
<path id="Vector_28" d="M25.9627 96.0888C26.1174 88.3191 16.8276 88.9257 17.3429 96.5792C18.567 114.687 18.8633 146.385 17.7939 155.652C17.3301 159.653 30.6399 159.24 29.4802 154.258C26.9677 143.469 25.5633 115.578 25.9627 96.1017V96.0888Z" fill="#C98841"/>
<g id="Group_8">
<path id="Vector_29" d="M20.0231 45.8324C18.5413 45.9098 17.8069 51.2789 15.5779 59.0357C13.3231 66.8571 12.6015 68.8963 11.6867 71.3873C11.1327 72.8973 13.0525 71.9035 14.0961 71.0388C14.6759 70.5613 15.3331 71.5809 13.5421 74.3816C11.5321 77.5308 10.759 79.3119 9.13556 82.2804C7.5121 85.2489 7.70537 89.0692 9.98594 87.7657C12.3309 86.4234 13.6581 88.2045 11.9444 90.6954C10.2436 93.1864 6.95806 96.826 5.74691 99.9752C3.93018 104.673 6.01748 106.17 8.7619 103.796C10.3596 102.402 10.5657 105.848 9.34171 107.371C6.85498 110.429 5.6696 112.275 3.56941 116.676C1.84287 120.277 1.05691 124.769 3.62095 125.246C6.18498 125.724 9.0196 123.052 10.3467 126.253C11.6867 129.454 12.9107 129.57 15.1913 126.588C16.3767 125.04 17.0209 122.639 18.5542 126.847C20.0746 131.054 22.9221 130.293 23.9786 128.189C25.0352 126.085 24.9707 123.439 26.8905 125.582C28.7975 127.724 30.8075 131.261 32.3665 129.247C33.9384 127.234 36.1288 123.659 38.7702 126.008C40.8446 127.866 43.4344 128.421 43.4473 125.078C43.4601 121.852 42.2232 119.012 38.7573 113.282C35.884 108.532 33.758 106.661 34.2348 104.557C34.6471 102.75 36.438 105.073 37.6621 106.028C41.7336 109.216 39.015 100.143 36.7859 97.1229C32.418 91.1988 29.3644 85.3392 33.2298 88.3206C37.0823 91.302 34.7502 82.9773 32.0444 79.6087C27.2127 73.5814 25.0738 69.9805 27.6507 71.0646C31.3744 72.6392 28.7588 69.3739 25.8727 61.8106C23.0896 54.4927 21.595 45.7033 20.0359 45.7937L20.0231 45.8324Z" fill="#7C9C81"/>
<g id="Group_9">
<path id="Vector_30" d="M20.5253 72.3805C20.2547 72.3805 20.0357 72.3031 19.9068 72.2256C18.5411 71.5029 18.2705 68.5086 19.2111 64.7657C19.2884 64.4301 19.6234 64.2365 19.9584 64.3269C20.2934 64.4043 20.4866 64.7399 20.3965 65.0754C19.4559 68.7925 19.9841 70.8834 20.4609 71.1415C20.5253 71.1802 20.6928 71.0899 20.899 70.8705C21.0922 70.38 21.0665 67.9407 21.0407 65.5788V65.2045C21.0407 64.8689 21.3113 64.585 21.6463 64.585C21.9813 64.585 22.2647 64.856 22.2647 65.1916V65.5659C22.3163 69.7734 22.3034 71.1286 21.8524 71.6448C21.3499 72.2127 20.8861 72.3676 20.5124 72.3805H20.5253Z" fill="#677F69"/>
<path id="Vector_31" d="M16.3376 83.5943C15.9253 83.5943 15.5774 83.4266 15.3713 83.1039C14.7915 82.2134 15.5001 80.4968 16.4794 78.3285C16.6211 78.0058 16.7499 77.7348 16.8272 77.5541C16.9561 77.2314 17.304 77.0766 17.6261 77.2056C17.9353 77.3347 18.0899 77.6832 17.974 78.0058C17.8967 78.2123 17.7678 78.4963 17.6132 78.8448C17.2782 79.5675 16.3119 81.71 16.4021 82.3553C17.188 82.265 17.6776 80.9872 18.193 79.645C18.3605 79.1932 18.5409 78.7415 18.7342 78.3027C18.8759 77.9929 19.2367 77.851 19.5459 77.9929C19.8551 78.1349 19.9969 78.4963 19.8551 78.806C19.6747 79.219 19.5072 79.6579 19.3397 80.0838C18.6826 81.8003 18.0126 83.5685 16.3634 83.5943H16.3376Z" fill="#677F69"/>
<path id="Vector_32" d="M26.7357 83.5594C24.9061 83.5723 23.1409 80.8104 22.458 78.7066C22.355 78.3839 22.5225 78.0355 22.8446 77.9322C23.1667 77.829 23.5146 77.9967 23.6177 78.3194C24.3392 80.5393 26.0142 82.5915 26.8903 82.2946C26.9548 82.2688 27.0707 82.2301 27.0965 82.1784C27.3027 81.6106 25.7694 79.1325 25.1123 78.0742C24.9319 77.7902 25.0221 77.403 25.3055 77.2223C25.589 77.0417 25.9755 77.132 26.1559 77.4159C27.8825 80.2167 28.604 81.6235 28.2432 82.5915C28.0886 83.0045 27.7665 83.3013 27.2769 83.4562C27.0965 83.5207 26.9161 83.5465 26.7357 83.5465V83.5594Z" fill="#677F69"/>
<path id="Vector_33" d="M13.5288 100.248C13.2582 100.248 13.0006 100.196 12.7815 100.08C12.2919 99.8216 11.9827 99.4602 11.8796 99.0214C11.6606 98.1309 12.279 97.2016 13.0521 96.0271C13.7865 94.9171 14.624 93.6652 14.9204 92.2197C14.9848 91.8841 15.3069 91.6647 15.6419 91.7421C15.9769 91.8067 16.183 92.1293 16.1186 92.4649C15.7836 94.1427 14.8302 95.5625 14.07 96.7111C13.5546 97.4855 12.9748 98.3632 13.065 98.7246C13.0907 98.8149 13.1809 98.9053 13.3613 98.9956C13.4386 99.0343 13.6577 99.0601 14.0571 98.8794C15.294 98.3374 16.8788 96.5563 17.5102 94.1686C17.6004 93.8459 17.9354 93.6523 18.2575 93.7297C18.5796 93.8201 18.7857 94.1557 18.6955 94.4783C17.9225 97.3694 16.0027 99.357 14.5467 100.002C14.1859 100.157 13.8381 100.248 13.5288 100.248Z" fill="#677F69"/>
<path id="Vector_34" d="M31.4897 100.993C31.1933 100.993 30.8712 100.928 30.5233 100.799C29.0287 100.244 27.0058 98.3467 26.091 95.5073C25.988 95.1846 26.1683 94.8362 26.4905 94.7329C26.8126 94.6297 27.1605 94.8104 27.2635 95.133C28.0237 97.482 29.6987 99.1857 30.9614 99.6503C31.3608 99.8052 31.5928 99.7665 31.6572 99.7277C31.8247 99.6245 31.9149 99.5341 31.9407 99.4438C32.018 99.0824 31.3866 98.2306 30.8326 97.482C30.008 96.3849 28.9901 95.004 28.5649 93.3519C28.4747 93.0293 28.6808 92.6937 29.003 92.6033C29.3251 92.513 29.6601 92.7195 29.7503 93.0422C30.1239 94.4619 31.0258 95.6751 31.8118 96.7463C32.6622 97.8821 33.3193 98.7727 33.1389 99.6761C33.0487 100.128 32.7653 100.489 32.2885 100.786C32.0566 100.928 31.786 100.993 31.4897 100.993Z" fill="#677F69"/>
<path id="Vector_35" d="M22.6638 103.526C22.5478 103.526 22.419 103.526 22.2773 103.487C20.2029 103.1 19.8936 99.3828 20.3446 96.9822C20.409 96.6466 20.7311 96.4272 21.0661 96.4917C21.4011 96.5563 21.6202 96.8789 21.5557 97.2145C21.1305 99.5119 21.6202 102.106 22.5092 102.274C22.5736 102.287 22.7025 102.3 22.7411 102.274C23.205 101.874 23.0503 98.9569 22.9859 97.7178C22.973 97.3823 23.2307 97.0854 23.5657 97.0725C23.875 97.0725 24.1971 97.3177 24.21 97.6533C24.3775 100.944 24.3259 102.519 23.5528 103.203C23.308 103.423 23.0117 103.526 22.6638 103.526Z" fill="#677F69"/>
<path id="Vector_36" d="M8.14308 118.791C7.8725 118.791 7.61481 118.739 7.39577 118.623C6.90616 118.365 6.59692 118.003 6.49385 117.564C6.27481 116.674 6.89327 115.745 7.66635 114.57C8.40077 113.46 9.23827 112.208 9.53462 110.763C9.59904 110.427 9.92115 110.208 10.2562 110.285C10.5912 110.35 10.7973 110.672 10.7329 111.008C10.3979 112.686 9.44442 114.105 8.68423 115.254C8.16885 116.029 7.58904 116.906 7.67923 117.268C7.705 117.358 7.79519 117.448 7.97558 117.539C8.05289 117.577 8.27192 117.603 8.67135 117.422C9.90827 116.88 11.4931 115.099 12.1244 112.712C12.2146 112.389 12.5496 112.182 12.8717 112.273C13.1938 112.363 13.4 112.699 13.3098 113.021C12.5367 115.912 10.6169 117.9 9.16096 118.545C8.80019 118.7 8.45231 118.778 8.14308 118.791Z" fill="#677F69"/>
<path id="Vector_37" d="M35.6259 121.891C35.3296 121.891 35.0075 121.826 34.6596 121.697C33.165 121.142 31.1421 119.245 30.2273 116.406C30.1242 116.083 30.3046 115.735 30.6267 115.631C30.9488 115.528 31.2967 115.709 31.3998 116.031C32.16 118.38 33.835 120.084 35.0977 120.549C35.4971 120.704 35.729 120.665 35.7934 120.626C35.9609 120.523 36.0511 120.433 36.0769 120.342C36.1542 119.981 35.5228 119.129 34.9688 118.38C34.1442 117.283 33.1263 115.902 32.7011 114.25C32.6109 113.928 32.8171 113.592 33.1392 113.502C33.4613 113.411 33.7963 113.618 33.8865 113.941C34.2602 115.36 35.1621 116.574 35.948 117.645C36.7855 118.781 37.4555 119.671 37.2751 120.575C37.185 121.026 36.9015 121.388 36.4248 121.685C36.1928 121.826 35.9223 121.891 35.6259 121.891Z" fill="#677F69"/>
<path id="Vector_38" d="M21.8396 123.424C21.7236 123.424 21.5948 123.424 21.4531 123.385C19.3786 122.998 19.0694 119.281 19.5204 116.881C19.5848 116.545 19.9069 116.326 20.2419 116.39C20.5769 116.455 20.7959 116.777 20.7315 117.113C20.3063 119.41 20.7959 122.005 21.685 122.172C21.7494 122.185 21.8782 122.198 21.9169 122.172C22.3807 121.772 22.2261 118.855 22.1617 117.616C22.1488 117.281 22.4065 116.984 22.7415 116.971C23.0507 116.958 23.3729 117.216 23.3857 117.552C23.5532 120.843 23.5017 122.418 22.7286 123.102C22.4838 123.321 22.1875 123.424 21.8396 123.424Z" fill="#677F69"/>
<path id="Vector_39" d="M16.6596 112.791C16.4019 112.791 16.2086 112.726 16.0669 112.649C15.6803 112.442 15.4484 112.158 15.3582 111.81C15.1907 111.126 15.6417 110.429 16.1828 109.629C16.6724 108.893 17.2265 108.067 17.4069 107.138C17.4713 106.802 17.7934 106.583 18.1284 106.66C18.4634 106.725 18.6696 107.047 18.6051 107.383C18.3732 108.557 17.7161 109.525 17.2007 110.313C16.9301 110.713 16.5436 111.306 16.5565 111.5C16.5565 111.5 16.5951 111.526 16.6467 111.565C17.0332 111.655 18.5923 110.519 19.1463 108.441C19.2365 108.119 19.5715 107.925 19.8936 108.002C20.2157 108.093 20.4219 108.428 20.3317 108.751C19.8034 110.751 18.4505 112.145 17.4198 112.597C17.1234 112.726 16.8657 112.778 16.6596 112.778V112.791Z" fill="#677F69"/>
<path id="Vector_40" d="M28.0499 112.675C27.8308 112.675 27.586 112.636 27.2897 112.507C26.2589 112.081 24.8803 110.713 24.3005 108.725C24.2103 108.402 24.3907 108.054 24.7257 107.964C25.0478 107.873 25.3957 108.054 25.4858 108.39C26.0785 110.442 27.6633 111.552 28.0628 111.448C28.1272 111.41 28.153 111.384 28.153 111.384C28.153 111.216 27.7535 110.622 27.4701 110.222C26.9289 109.448 26.2589 108.493 26.0012 107.318C25.9239 106.983 26.1301 106.66 26.4651 106.583C26.8001 106.505 27.1222 106.712 27.1995 107.047C27.4056 107.977 27.9726 108.79 28.4751 109.512C29.0291 110.3 29.493 110.984 29.3383 111.668C29.261 112.029 29.0291 112.313 28.6426 112.52C28.5008 112.597 28.3076 112.675 28.0499 112.675Z" fill="#677F69"/>
</g>
</g>
</g>
<path id="Vector_41" d="M162.217 177.232C186.891 159.188 198.462 145.469 212.416 141.726C234.204 135.892 235.557 128.497 239.641 122.405C243.725 116.313 254.317 93.7135 266.299 87.5958C271.183 85.1049 273.901 84.7435 276.697 85.1178C280.666 85.6469 281.645 85.8922 280.575 86.9505C279.197 88.3186 269.559 95.1849 262.434 107.42C258.8 113.667 260.591 124.212 249.124 138.086C243.751 144.591 220.572 158.194 212.055 167.784C203.538 177.374 195.872 189.015 187.948 192.19C180.024 195.365 171.43 193.158 153.031 192.281C133.047 191.325 153.507 183.594 162.205 177.232H162.217Z" fill="#7C9C81"/>
<g id="Group_10">
<path id="Vector_42" d="M293.409 94.4102C301.629 86.6534 315.57 79.116 337.049 88.6281C358.592 98.1789 364.905 113.899 366.838 125.876C367.959 132.781 350.062 150.179 343.117 150.528C336.173 150.876 303.136 136.744 298.008 131.607C289.466 123.037 285.304 102.038 293.396 94.3973L293.409 94.4102Z" fill="#EDBC32"/>
<path id="Vector_43" d="M325.298 88.1271C316.175 82.5385 303.832 83.3646 292.738 94.2318C282.366 104.389 274.004 117.27 270.023 135.223C268.786 140.811 273.527 142.283 280.369 143.057L339.277 150.491C346.106 151.266 348.58 147.355 346.866 139.624C342.834 121.477 340.836 97.6392 325.31 88.1271H325.298Z" fill="#FDD23E"/>
<path id="Vector_44" d="M266.879 134.098C266.879 134.098 266.841 134.098 266.828 134.098C266.647 134.072 266.519 133.904 266.544 133.711C267.717 125.618 276.736 107.898 287.057 96.2948C296.308 85.8922 308.651 82.3042 313.882 81.8524C314.076 81.8395 314.23 81.9686 314.243 82.1622C314.256 82.3558 314.127 82.5107 313.934 82.5236C307.955 83.0269 295.999 87.2345 287.546 96.7337C277.303 108.246 268.361 125.799 267.201 133.801C267.176 133.969 267.034 134.085 266.866 134.085L266.879 134.098Z" fill="#7C6351"/>
<path id="Vector_45" d="M350.758 145.871C350.577 145.871 350.423 145.729 350.423 145.549C350.126 139.147 345.874 116.367 340.012 102.802C333.93 88.7469 320.93 83.5714 314.9 82.797C314.719 82.7712 314.591 82.6034 314.603 82.4227C314.629 82.242 314.797 82.113 314.977 82.1259C321.136 82.9132 334.433 88.2049 340.63 102.531C346.531 116.173 350.796 139.082 351.093 145.51C351.093 145.69 350.964 145.858 350.771 145.858L350.758 145.871Z" fill="#7C6351"/>
<path id="Vector_46" d="M370.936 126.51C370.768 126.51 370.626 126.394 370.601 126.226C369.673 119.76 360.19 102.336 352.111 95.9215C341.507 87.5065 324.912 82.4859 315.442 82.5762C315.351 82.5762 315.274 82.5762 315.197 82.5762C315.016 82.5762 314.862 82.4342 314.862 82.2406C314.862 82.06 315.004 81.9051 315.197 81.8922C315.287 81.8922 315.364 81.8922 315.455 81.8922C325.041 81.7889 341.829 86.8741 352.549 95.3795C360.744 101.871 370.356 119.54 371.284 126.11C371.309 126.291 371.18 126.471 371 126.497C370.987 126.497 370.974 126.497 370.961 126.497L370.936 126.51Z" fill="#7C6351"/>
<path id="Vector_47" d="M352.122 144.486L350.112 144.507C349.649 144.512 349.278 144.891 349.283 145.355L349.365 153.279C349.369 153.742 349.748 154.114 350.211 154.109L352.22 154.088C352.683 154.083 353.054 153.704 353.049 153.241L352.968 145.316C352.963 144.853 352.584 144.481 352.122 144.486Z" fill="#C98841"/>
<path id="Vector_48" d="M267.876 132.205L265.866 132.226C265.404 132.231 265.033 132.61 265.037 133.073L265.119 140.997C265.124 141.461 265.502 141.832 265.965 141.828L267.975 141.807C268.437 141.802 268.808 141.423 268.804 140.959L268.722 133.035C268.717 132.572 268.339 132.2 267.876 132.205Z" fill="#C98841"/>
<path id="Vector_49" d="M371.626 123.033L369.616 123.054C369.154 123.059 368.783 123.438 368.787 123.901L368.869 131.826C368.874 132.289 369.252 132.661 369.715 132.656L371.725 132.635C372.187 132.63 372.558 132.251 372.554 131.788L372.472 123.863C372.467 123.4 372.089 123.028 371.626 123.033Z" fill="#C98841"/>
<path id="Vector_50" d="M312.62 83.4926C312.62 83.6475 313.019 83.7637 313.496 83.7637L315.57 83.7378C316.047 83.7378 316.446 83.6088 316.446 83.4539L316.42 80.8726C316.42 80.7177 316.021 80.6016 315.544 80.6016L313.47 80.6274C312.993 80.6274 312.594 80.7564 312.594 80.9113L312.62 83.4926Z" fill="#7C6351"/>
<path id="Vector_51" d="M308.2 105.007C309.501 105.175 311.473 110.982 313.483 113.422C315.699 116.093 319.667 119.217 322.85 120.959C326.032 122.689 328.816 123.411 330.967 124.405C333.119 125.412 334.047 125.399 333.609 128.561C333.171 131.723 331.508 141.519 331.908 143.649C332.307 145.791 332.41 146.992 329.898 146.372C327.385 145.753 324.886 146.888 325.324 144.656C325.762 142.423 328.738 133.543 328.996 131.594C329.254 129.632 330.065 126.754 328.661 126.574C325.968 126.225 317.181 121.708 313.766 118.907C309.785 115.642 307.814 108.827 307.247 108.737C306.706 108.659 306.1 110.002 304.902 111.228C303.703 112.454 298.266 116.416 295.032 117.939C291.798 119.462 284.505 121.243 283.552 121.359C282.598 121.475 282.199 127.271 281.877 129.658C281.529 132.175 282.586 140.229 281.374 139.854C279.184 139.183 275.705 139.274 276.246 138.37C277.432 136.408 277.78 128.961 278.488 126.251C279.197 123.541 278.411 118.339 281.928 117.565C285.446 116.79 290.033 115.1 295.071 112.776C302.518 109.356 306.615 104.8 308.187 105.007H308.2Z" fill="#7C9C81"/>
<path id="Vector_52" d="M283.642 140.231C276.246 138.786 281.271 124.653 282.611 121.478C283.448 119.516 297.789 117.658 305.339 109.346C307.311 107.178 307.723 107.126 308.522 109.398C311.743 118.652 322.154 124.615 328.583 125.944C331.753 126.602 328.441 133.417 327.565 139.393C326.676 145.497 324.177 145.988 317.438 145.381C310.699 144.775 304.708 143.807 299.928 143.174C294.684 142.49 288.538 141.174 283.642 140.219V140.231Z" fill="#C98841"/>
</g>
<path id="Vector_53" d="M137.157 92.8754C129.091 83.673 126.54 74.7417 110.512 95.0824C100.41 107.899 86.3658 127.284 71.2393 142.385C68.5206 145.095 71.1877 149.212 73.275 153.743C75.3752 158.273 75.9808 161.28 79.9622 161.099C87.6156 160.751 137.788 140.836 143.586 135.338C153.263 126.174 142.697 99.1996 137.157 92.8883V92.8754Z" fill="#EDBC32"/>
<path id="Vector_54" d="M120.162 90.5004C123.396 84.9893 125.805 83.0146 127.583 83.092C128.975 83.1437 133.974 87.2479 139.205 94.9531C150.247 111.19 159.022 122.379 179.624 143.52C184.018 148.025 188.502 151.174 180.951 151.819L79.8457 161.422C72.3082 162.067 84.162 149.47 89.5993 142.656C105.19 123.076 108.733 110.028 120.162 90.5133V90.5004Z" fill="#FDD23E"/>
<path id="Vector_55" d="M160.001 154.155C169.832 152.723 163.711 134.111 162.152 129.852C161.186 127.219 142.4 123.838 132.982 112.428C130.521 109.447 129.979 109.344 128.794 112.299C123.962 124.29 109.867 131.478 101.311 132.808C97.098 133.466 101.028 142.656 101.801 150.58C102.587 158.685 101.363 159.421 106.426 159.098C115.33 158.518 131.629 157.847 137.968 157.33C144.913 156.762 153.494 155.097 160.001 154.155Z" fill="#C98841"/>
<path id="Vector_56" d="M105.679 158.415C111.632 158.002 133.368 154.839 138.342 154.788C143.315 154.736 155.478 153.007 157.604 152.981C159.743 152.955 161.702 154.181 165.799 154.672C169.896 155.162 174.599 155.42 176.918 156.117C179.238 156.814 182.536 157.795 175.089 159.602C166.959 161.577 163.724 160.389 159.292 162.028C154.86 163.667 148.07 165.074 144.037 164.674C139.991 164.287 137.646 165.1 134.979 165.474C132.312 165.862 129.825 165.345 125.908 164.493C121.991 163.642 109.467 161.189 107.38 160.596C104.082 159.654 103.644 158.531 105.666 158.389L105.679 158.415Z" fill="#7C9C81"/>
<path id="Vector_57" d="M398.843 175.414C408.854 175.53 414.072 183.119 412.346 189.482C410.812 195.135 396.317 194.606 390.158 194.529C379.825 194.387 366.85 193.509 364.428 189.844C361.348 185.184 365.819 181.816 375.637 181.454C380.727 181.261 386.035 175.272 398.856 175.427L398.843 175.414Z" fill="#7C9C81"/>
<g id="Group_11">
<path id="Vector_58" d="M400.608 112.878C400.801 103.495 389.566 104.218 390.184 113.459C391.666 135.335 392.027 173.642 390.725 184.845C390.171 189.685 406.251 189.181 404.847 183.154C401.806 170.118 400.118 136.407 400.595 112.865L400.608 112.878Z" fill="#C98841"/>
<g id="Group_12">
<path id="Vector_59" d="M393.419 52.1414C391.628 52.2317 390.751 58.7237 388.033 68.0938C385.301 77.5543 384.438 80.0065 383.33 83.0267C382.66 84.8465 384.979 83.6591 386.242 82.6137C386.938 82.0458 387.736 83.2719 385.559 86.6663C383.124 90.4737 382.183 92.6291 380.238 96.2171C378.292 99.8051 378.498 104.413 381.268 102.851C384.103 101.238 385.701 103.38 383.639 106.387C381.59 109.395 377.622 113.809 376.153 117.603C373.963 123.282 376.475 125.102 379.8 122.211C381.732 120.533 381.977 124.702 380.495 126.522C377.493 130.226 376.063 132.446 373.525 137.763C371.437 142.126 370.484 147.546 373.589 148.127C376.694 148.708 380.109 145.481 381.719 149.34C383.33 153.212 384.812 153.354 387.582 149.74C389.012 147.869 389.798 144.965 391.64 150.05C393.483 155.135 396.91 154.219 398.186 151.676C399.461 149.134 399.384 145.933 401.703 148.527C404.01 151.121 406.432 155.393 408.326 152.967C410.22 150.541 412.874 146.204 416.07 149.056C418.582 151.289 421.7 151.973 421.726 147.946C421.752 144.049 420.244 140.616 416.057 133.685C412.591 127.941 410.014 125.683 410.594 123.153C411.096 120.972 413.261 123.785 414.73 124.934C419.652 128.78 416.366 117.823 413.673 114.183C408.39 107.02 404.705 99.9471 409.37 103.548C414.034 107.149 411.212 97.0948 407.939 93.0163C402.103 85.737 399.513 81.3746 402.631 82.6911C407.128 84.5883 403.958 80.639 400.479 71.5011C397.116 62.6602 395.3 52.0381 393.419 52.1414Z" fill="#7C9C81"/>
<g id="Group_13">
<path id="Vector_60" d="M394.037 84.2158C393.702 84.2158 393.445 84.1125 393.29 84.0351C391.641 83.1704 391.306 79.5436 392.452 75.0263C392.556 74.6262 392.955 74.3939 393.354 74.4843C393.754 74.5875 393.999 74.9876 393.896 75.3877C392.762 79.8792 393.406 82.4089 393.986 82.7186C394.063 82.7573 394.256 82.6541 394.514 82.396C394.746 81.8023 394.707 78.8596 394.682 76.0072V75.5426C394.682 75.1296 395.004 74.794 395.416 74.794C395.828 74.794 396.163 75.1167 396.163 75.5297V75.9943C396.215 81.0795 396.215 82.7186 395.674 83.3381C395.068 84.0222 394.501 84.2158 394.063 84.2287L394.037 84.2158Z" fill="#677F69"/>
<path id="Vector_61" d="M388.973 97.7812C388.471 97.7812 388.059 97.5747 387.814 97.1875C387.118 96.1163 387.968 94.0254 389.154 91.4183C389.334 91.0311 389.476 90.6955 389.566 90.4761C389.721 90.0889 390.146 89.9082 390.533 90.0631C390.919 90.218 391.099 90.6439 390.945 91.0311C390.855 91.2763 390.687 91.6248 390.507 92.0378C390.107 92.9155 388.935 95.4968 389.038 96.2841C389.991 96.1679 390.571 94.632 391.202 93.0058C391.409 92.4637 391.615 91.9088 391.847 91.3925C392.014 91.0182 392.452 90.8504 392.826 91.0182C393.2 91.186 393.367 91.6248 393.2 91.9991C392.981 92.5025 392.774 93.0316 392.581 93.5479C391.795 95.6258 390.971 97.7683 388.973 97.7812Z" fill="#677F69"/>
<path id="Vector_62" d="M401.536 97.7299C399.332 97.7557 397.193 94.4129 396.356 91.8704C396.227 91.4832 396.446 91.0572 396.833 90.9282C397.219 90.7991 397.644 91.0185 397.773 91.4057C398.649 94.0774 400.672 96.5683 401.729 96.2069C401.806 96.1811 401.948 96.1295 401.974 96.065C402.231 95.368 400.376 92.3737 399.577 91.096C399.358 90.7475 399.474 90.2829 399.822 90.0763C400.17 89.8569 400.634 89.9731 400.84 90.3216C402.927 93.7031 403.79 95.4067 403.365 96.5812C403.185 97.0846 402.785 97.4331 402.193 97.6396C401.974 97.717 401.755 97.7428 401.536 97.7428V97.7299Z" fill="#677F69"/>
<path id="Vector_63" d="M385.572 117.89C385.237 117.89 384.94 117.826 384.67 117.684C384.077 117.374 383.703 116.935 383.575 116.406C383.304 115.322 384.051 114.212 384.992 112.792C385.881 111.45 386.899 109.927 387.247 108.184C387.324 107.784 387.723 107.526 388.123 107.604C388.522 107.681 388.78 108.081 388.703 108.481C388.29 110.508 387.144 112.237 386.229 113.618C385.61 114.547 384.902 115.606 385.018 116.044C385.043 116.148 385.159 116.264 385.366 116.38C385.456 116.432 385.726 116.445 386.203 116.238C387.698 115.593 389.605 113.424 390.378 110.546C390.481 110.146 390.893 109.914 391.292 110.017C391.692 110.12 391.924 110.533 391.821 110.933C390.893 114.418 388.574 116.832 386.809 117.606C386.371 117.8 385.958 117.89 385.585 117.903L385.572 117.89Z" fill="#677F69"/>
<path id="Vector_64" d="M407.269 118.807C406.908 118.807 406.522 118.729 406.097 118.575C404.293 117.903 401.845 115.606 400.737 112.173C400.608 111.786 400.827 111.36 401.213 111.231C401.6 111.102 402.025 111.321 402.154 111.708C403.069 114.535 405.092 116.6 406.625 117.168C407.115 117.348 407.385 117.31 407.475 117.258C407.682 117.142 407.785 117.026 407.81 116.91C407.901 116.471 407.14 115.451 406.47 114.548C405.478 113.218 404.241 111.553 403.726 109.553C403.623 109.153 403.868 108.753 404.254 108.649C404.641 108.546 405.053 108.779 405.156 109.179C405.607 110.895 406.689 112.367 407.656 113.657C408.674 115.025 409.485 116.109 409.266 117.194C409.163 117.736 408.815 118.187 408.236 118.536C407.952 118.704 407.63 118.794 407.269 118.794V118.807Z" fill="#677F69"/>
<path id="Vector_65" d="M396.614 121.849C396.472 121.849 396.318 121.849 396.15 121.811C393.638 121.333 393.277 116.842 393.818 113.951C393.895 113.551 394.282 113.28 394.681 113.357C395.081 113.434 395.351 113.822 395.274 114.222C394.758 116.997 395.351 120.133 396.421 120.339C396.511 120.352 396.653 120.378 396.704 120.339C397.258 119.849 397.078 116.338 397 114.828C396.975 114.415 397.297 114.067 397.709 114.041C398.083 114.028 398.469 114.338 398.495 114.738C398.701 118.713 398.637 120.623 397.696 121.436C397.4 121.695 397.039 121.824 396.627 121.837L396.614 121.849Z" fill="#677F69"/>
<path id="Vector_66" d="M379.065 140.308C378.73 140.308 378.434 140.243 378.163 140.102C377.57 139.792 377.197 139.353 377.068 138.824C376.797 137.74 377.545 136.63 378.485 135.21C379.374 133.868 380.392 132.345 380.74 130.602C380.817 130.202 381.217 129.944 381.616 130.022C382.015 130.099 382.273 130.499 382.196 130.899C381.784 132.925 380.637 134.655 379.722 136.036C379.104 136.965 378.395 138.024 378.511 138.462C378.537 138.566 378.653 138.682 378.859 138.798C378.949 138.85 379.22 138.875 379.696 138.656C381.191 138.011 383.098 135.842 383.871 132.964C383.974 132.564 384.386 132.332 384.786 132.435C385.185 132.538 385.417 132.951 385.314 133.351C384.386 136.836 382.067 139.25 380.302 140.024C379.864 140.218 379.451 140.308 379.078 140.321L379.065 140.308Z" fill="#677F69"/>
<path id="Vector_67" d="M412.269 144.052C411.908 144.052 411.521 143.975 411.096 143.82C409.292 143.149 406.844 140.851 405.736 137.418C405.607 137.031 405.826 136.605 406.213 136.476C406.6 136.347 407.025 136.566 407.154 136.954C408.068 139.78 410.091 141.845 411.625 142.413C412.114 142.594 412.385 142.555 412.475 142.503C412.681 142.387 412.784 142.271 412.81 142.155C412.9 141.716 412.14 140.696 411.47 139.793C410.478 138.464 409.241 136.799 408.725 134.798C408.622 134.398 408.867 133.998 409.254 133.895C409.64 133.792 410.053 134.037 410.156 134.424C410.607 136.14 411.689 137.612 412.655 138.902C413.673 140.271 414.485 141.355 414.266 142.439C414.163 142.981 413.815 143.433 413.235 143.781C412.952 143.949 412.63 144.039 412.269 144.039V144.052Z" fill="#677F69"/>
<path id="Vector_68" d="M395.609 145.908C395.467 145.908 395.313 145.908 395.145 145.869C392.633 145.392 392.272 140.9 392.813 138.009C392.89 137.609 393.277 137.338 393.676 137.416C394.076 137.493 394.346 137.88 394.269 138.28C393.754 141.055 394.346 144.191 395.416 144.398C395.506 144.411 395.648 144.437 395.699 144.398C396.253 143.908 396.073 140.397 395.996 138.887C395.97 138.474 396.292 138.125 396.704 138.1C397.091 138.074 397.464 138.396 397.49 138.797C397.696 142.772 397.632 144.682 396.691 145.495C396.395 145.753 396.034 145.882 395.622 145.895L395.609 145.908Z" fill="#677F69"/>
<path id="Vector_69" d="M389.36 133.055C389.05 133.055 388.806 132.977 388.638 132.887C388.174 132.642 387.891 132.293 387.775 131.867C387.569 131.041 388.123 130.203 388.767 129.235C389.36 128.357 390.017 127.35 390.249 126.227C390.326 125.827 390.725 125.569 391.125 125.647C391.524 125.724 391.782 126.124 391.705 126.524C391.421 127.931 390.635 129.118 390.004 130.061C389.682 130.538 389.205 131.261 389.218 131.493C389.218 131.493 389.256 131.519 389.334 131.571C389.811 131.674 391.692 130.306 392.362 127.802C392.465 127.402 392.877 127.17 393.276 127.273C393.676 127.376 393.908 127.789 393.805 128.189C393.161 130.616 391.537 132.293 390.287 132.835C389.926 132.99 389.63 133.055 389.372 133.055H389.36Z" fill="#677F69"/>
<path id="Vector_70" d="M403.121 132.911C402.863 132.911 402.554 132.859 402.193 132.718C400.943 132.201 399.281 130.549 398.586 128.149C398.47 127.749 398.702 127.348 399.088 127.232C399.475 127.116 399.9 127.348 400.003 127.736C400.724 130.227 402.644 131.569 403.121 131.427C403.198 131.375 403.224 131.349 403.224 131.349C403.237 131.143 402.734 130.42 402.399 129.943C401.742 129.013 400.943 127.839 400.621 126.432C400.531 126.032 400.789 125.632 401.188 125.541C401.588 125.451 401.987 125.709 402.077 126.109C402.335 127.232 403.018 128.213 403.624 129.091C404.281 130.046 404.86 130.859 404.667 131.698C404.564 132.124 404.281 132.472 403.83 132.73C403.662 132.821 403.417 132.911 403.108 132.911H403.121Z" fill="#677F69"/>
</g>
</g>
</g>
<g id="Group_14">
<path id="Vector_71" d="M188.798 126.263C188.979 131.439 188.876 136.937 189.275 142.293C189.675 147.65 189.017 147.559 191.594 147.495C192.934 147.469 192.045 142.952 191.981 137.776C191.917 131.62 191.491 122.508 191.272 117.048C191.066 111.589 191.362 110.698 189.842 110.711C187.819 110.724 188.592 111.55 188.682 114.867C188.773 118.184 188.695 123.205 188.811 126.251L188.798 126.263Z" fill="#D6A672"/>
<path id="Vector_72" d="M183.761 118.143C186.157 117.485 190.589 116.143 194.146 115.356C198.05 114.491 197.972 113.962 199.957 115.394C201.941 116.814 201.954 116.427 200.627 118.414C199.287 120.402 199.776 119.808 196.542 120.763C193.308 121.719 185.732 123.835 181.673 124.777C180.514 125.048 181.016 123.319 181.106 121.215C181.222 118.776 181.506 118.789 183.761 118.156V118.143Z" fill="#D6A672"/>
<path id="Vector_73" d="M182.421 126.562C184.894 126.807 191.015 127.285 194.609 127.827C198.552 128.42 198.681 127.904 200.021 129.956C201.361 131.995 201.516 131.634 199.557 133.015C197.599 134.383 198.269 134.009 194.906 133.725C191.543 133.454 185.101 133.17 180.977 132.589C179.805 132.421 179.856 131.66 180.063 129.221C180.269 126.781 180.088 126.329 182.433 126.562H182.421Z" fill="#D6A672"/>
<path id="Vector_74" d="M189.675 112.21C189.365 112.21 189.069 112.094 188.734 111.9C188.657 111.861 188.631 111.758 188.67 111.681C188.708 111.603 188.811 111.577 188.889 111.616C189.481 111.952 189.816 111.99 190.461 111.603C190.538 111.564 190.628 111.577 190.68 111.655C190.718 111.732 190.705 111.823 190.628 111.874C190.254 112.094 189.958 112.197 189.675 112.197V112.21Z" fill="#C86B37"/>
<path id="Vector_75" d="M182.64 119.294C182.563 119.294 182.498 119.242 182.485 119.177C182.459 119.087 182.524 119.01 182.601 118.984C185.088 118.403 196.027 115.706 196.929 115.331C197.006 115.293 197.096 115.331 197.135 115.422C197.174 115.499 197.135 115.589 197.045 115.628C196.066 116.041 184.676 118.829 182.666 119.307C182.666 119.307 182.64 119.307 182.627 119.307L182.64 119.294Z" fill="#C86B37"/>
<path id="Vector_76" d="M197.354 129.205C197.354 129.205 197.354 129.205 197.341 129.205C196.658 129.141 182.936 127.76 181.674 127.643C181.583 127.643 181.519 127.553 181.532 127.476C181.532 127.385 181.622 127.321 181.699 127.334C182.962 127.45 196.684 128.831 197.367 128.895C197.457 128.895 197.522 128.986 197.509 129.063C197.509 129.141 197.432 129.205 197.354 129.205Z" fill="#C86B37"/>
<path id="Vector_77" d="M199.853 131.529C199.853 131.529 199.737 131.503 199.711 131.439C199.596 131.219 199.364 130.961 199.067 130.638C198.81 130.354 198.526 130.045 198.217 129.658C198.165 129.593 198.178 129.49 198.243 129.438C198.307 129.386 198.41 129.399 198.462 129.464C198.758 129.851 199.041 130.161 199.286 130.432C199.596 130.767 199.84 131.039 199.982 131.297C200.021 131.374 199.982 131.464 199.918 131.503C199.892 131.503 199.866 131.516 199.853 131.516V131.529Z" fill="#C86B37"/>
<path id="Vector_78" d="M200.562 116.84C200.562 116.84 200.485 116.84 200.459 116.801C200.266 116.634 199.738 116.363 199.222 116.092C198.874 115.911 198.526 115.73 198.269 115.575C198.191 115.537 198.166 115.433 198.217 115.356C198.256 115.278 198.359 115.253 198.436 115.304C198.681 115.459 199.042 115.64 199.377 115.808C199.931 116.092 200.446 116.363 200.678 116.556C200.743 116.608 200.756 116.711 200.691 116.776C200.665 116.814 200.614 116.827 200.575 116.827L200.562 116.84Z" fill="#C86B37"/>
<path id="Vector_79" d="M190.989 143.44C190.924 143.44 190.86 143.389 190.834 143.324C190.705 142.847 190.744 141.427 190.77 139.762C190.796 138.226 190.834 136.484 190.744 135.387C190.744 135.296 190.796 135.219 190.886 135.219C190.976 135.219 191.053 135.27 191.053 135.361C191.143 136.484 191.118 138.226 191.079 139.775C191.04 141.336 191.015 142.821 191.131 143.247C191.156 143.324 191.105 143.414 191.015 143.44C191.002 143.44 190.989 143.44 190.976 143.44H190.989Z" fill="#C86B37"/>
<path id="Vector_80" d="M189.3 116.739C189.236 116.739 189.172 116.687 189.146 116.623C189.12 116.545 189.172 116.455 189.262 116.429L189.648 116.326C190.112 116.197 190.318 116.145 190.718 116.042C190.795 116.016 190.885 116.068 190.911 116.158C190.937 116.248 190.885 116.326 190.795 116.352C190.408 116.455 190.189 116.506 189.738 116.636L189.352 116.739C189.352 116.739 189.326 116.739 189.313 116.739H189.3Z" fill="#C86B37"/>
<path id="Vector_81" d="M190.641 127.333C190.177 127.333 189.61 127.307 189.082 127.113C189.005 127.088 188.966 126.997 188.992 126.907C189.018 126.829 189.108 126.791 189.198 126.817C189.842 127.062 190.602 127.023 191.053 127.01C191.144 127.01 191.234 127.01 191.298 127.01C191.388 127.01 191.453 127.075 191.453 127.165C191.453 127.255 191.388 127.32 191.298 127.32C191.234 127.32 191.156 127.32 191.079 127.32C190.963 127.32 190.821 127.32 190.654 127.32L190.641 127.333Z" fill="#C86B37"/>
</g>
<g id="Group_15">
<path id="Vector_82" d="M65.0412 76.432C65.1958 68.8817 56.1637 69.4754 56.6662 76.8966C57.8645 94.4882 58.1479 125.283 57.1043 134.292C56.6533 138.177 69.5895 137.777 68.4556 132.937C66.0204 122.457 64.6547 95.3529 65.0412 76.432Z" fill="#C98841"/>
<g id="Group_16">
<path id="Vector_83" d="M59.2559 27.606C57.8128 27.6834 57.1041 32.8977 54.9266 40.4351C52.7362 48.037 52.0405 50.0117 51.1514 52.4381C50.6103 53.9095 52.4786 52.9415 53.4964 52.1026C54.0634 51.6379 54.6947 52.6317 52.9553 55.355C50.9968 58.4138 50.2495 60.1433 48.6776 63.0344C47.1057 65.9254 47.2861 69.6296 49.5022 68.3648C51.7828 67.0612 53.0712 68.7907 51.4091 71.2171C49.7599 73.6306 46.5645 77.1799 45.392 80.2388C43.6268 84.8077 45.6497 86.2661 48.3168 83.9429C49.8759 82.5877 50.0691 85.9434 48.8709 87.4148C46.4614 90.3833 45.3018 92.1773 43.2661 96.4493C41.5911 99.9599 40.818 104.322 43.3176 104.774C45.8172 105.239 48.5616 102.644 49.863 105.755C51.1643 108.865 52.3497 108.982 54.5787 106.078C55.7255 104.58 56.3568 102.244 57.8385 106.336C59.3203 110.427 62.0776 109.679 63.1084 107.639C64.1391 105.6 64.0747 103.019 65.9301 105.11C67.7855 107.2 69.731 110.634 71.2514 108.672C72.7718 106.723 74.9107 103.238 77.4747 105.523C79.4976 107.317 81.9972 107.872 82.023 104.632C82.0358 101.509 80.8247 98.7467 77.4618 93.1582C74.6658 88.5377 72.6043 86.7307 73.0681 84.6915C73.4676 82.9362 75.207 85.1949 76.3924 86.1241C80.348 89.2217 77.7066 80.4065 75.542 77.4768C71.2901 71.7205 68.3395 66.0287 72.076 68.9327C75.8255 71.8237 73.5578 63.7442 70.9293 60.466C66.2393 54.6193 64.152 51.1088 66.6645 52.1671C70.2851 53.703 67.7339 50.528 64.938 43.1713C62.2322 36.0598 60.7762 27.5286 59.2559 27.606Z" fill="#7C9C81"/>
<g id="Group_17">
<path id="Vector_84" d="M59.7459 53.3932C59.4753 53.3932 59.2692 53.3157 59.1403 53.2512C57.8132 52.5542 57.5555 49.6374 58.4703 46.0106C58.5476 45.688 58.8826 45.4944 59.1918 45.5847C59.514 45.6622 59.7072 45.9848 59.6299 46.3075C58.7151 49.9213 59.2305 51.9605 59.6943 52.2058C59.7588 52.2445 59.9134 52.1541 60.1195 51.9476C60.2999 51.4701 60.2741 49.1082 60.2484 46.8108V46.4366C60.2484 46.101 60.5061 45.8299 60.8411 45.8299C61.1761 45.8299 61.4466 46.0881 61.4466 46.4237V46.7979C61.4982 50.8893 61.4853 52.2058 61.0472 52.7091C60.5576 53.2641 60.1066 53.419 59.7459 53.419V53.3932Z" fill="#677F69"/>
<path id="Vector_85" d="M55.6869 64.3006C55.2875 64.3006 54.9525 64.1328 54.7463 63.823C54.1794 62.9583 54.8752 61.2804 55.8158 59.1896C55.9575 58.8798 56.0734 58.6088 56.1508 58.4281C56.2667 58.1183 56.6146 57.9635 56.9238 58.0925C57.2331 58.2087 57.3748 58.5572 57.2588 58.8669C57.1815 59.0605 57.0527 59.3445 56.8981 59.68C56.5759 60.3899 55.6354 62.4678 55.7256 63.1002C56.4858 63.0099 56.9625 61.7709 57.465 60.4673C57.6325 60.0285 57.8 59.5897 57.9933 59.1638C58.1221 58.8669 58.4829 58.7249 58.7792 58.854C59.0756 58.9831 59.2173 59.3445 59.0884 59.6413C58.9081 60.0414 58.7534 60.4673 58.5859 60.8803C57.9546 62.5453 57.2975 64.2747 55.6869 64.2877V64.3006Z" fill="#677F69"/>
<path id="Vector_86" d="M65.7755 64.2468C63.9975 64.2597 62.2838 61.5752 61.6138 59.536C61.5107 59.2262 61.6782 58.8906 62.0003 58.7874C62.3096 58.6841 62.6446 58.8519 62.7476 59.1746C63.4563 61.33 65.0798 63.3176 65.9301 63.0336C65.9946 63.0078 66.1105 62.9691 66.1234 62.9175C66.3296 62.3625 64.835 59.949 64.2036 58.9294C64.0361 58.6454 64.1134 58.284 64.3969 58.1033C64.6803 57.9356 65.0411 58.013 65.2215 58.2969C66.9094 61.0073 67.5923 62.3883 67.2573 63.3305C67.1155 63.7306 66.7934 64.0145 66.3167 64.1823C66.1363 64.2339 65.9688 64.2727 65.7884 64.2727L65.7755 64.2468Z" fill="#677F69"/>
<path id="Vector_87" d="M52.955 80.4724C52.6845 80.4724 52.4397 80.4208 52.2335 80.3046C51.7568 80.0465 51.4604 79.7109 51.3574 79.2721C51.1383 78.4073 51.7439 77.5039 52.5041 76.3681C53.2256 75.2969 54.0374 74.0707 54.3208 72.6639C54.3852 72.3413 54.6945 72.1348 55.0295 72.1993C55.3516 72.2638 55.5577 72.5865 55.4933 72.9092C55.1583 74.5354 54.2435 75.9293 53.4962 77.0392C52.9937 77.7878 52.4268 78.6397 52.517 78.9881C52.5427 79.0785 52.6329 79.1688 52.8004 79.2592C52.8777 79.2979 53.0968 79.3108 53.4704 79.1559C54.6687 78.6267 56.2149 76.8973 56.8204 74.5741C56.9106 74.2514 57.2327 74.0707 57.5549 74.1482C57.877 74.2385 58.0574 74.5612 57.98 74.8839C57.2327 77.6846 55.3645 79.6335 53.9472 80.253C53.5993 80.4078 53.2643 80.4853 52.955 80.4853V80.4724Z" fill="#677F69"/>
<path id="Vector_88" d="M70.4008 81.1919C70.1173 81.1919 69.7952 81.1274 69.4602 81.0112C68.0172 80.4691 66.0458 78.6235 65.1568 75.8744C65.0537 75.5647 65.2212 75.2291 65.5433 75.1258C65.8525 75.0226 66.1875 75.1904 66.2906 75.513C67.025 77.7846 68.6614 79.4495 69.8854 79.9013C70.272 80.0432 70.491 80.0174 70.5683 79.9787C70.7358 79.8754 70.826 79.7851 70.8389 79.6948C70.9033 79.3334 70.2977 78.5203 69.7566 77.7975C68.9577 76.7263 67.9656 75.3969 67.5533 73.7836C67.476 73.4609 67.6564 73.1382 67.9785 73.0608C68.2877 72.9834 68.6227 73.1641 68.7 73.4867C69.0608 74.8677 69.937 76.0422 70.71 77.0876C71.5347 78.1847 72.1789 79.0494 72.0114 79.9271C71.9212 80.3659 71.6506 80.7273 71.1868 80.9983C70.9677 81.1274 70.6972 81.2048 70.4137 81.2048L70.4008 81.1919Z" fill="#677F69"/>
<path id="Vector_89" d="M61.833 83.6474C61.7171 83.6474 61.5882 83.6474 61.4594 83.6087C59.4365 83.2344 59.1402 79.6206 59.5782 77.2974C59.6427 76.9748 59.9519 76.7553 60.274 76.8199C60.5961 76.8844 60.8152 77.1942 60.7507 77.5168C60.3384 79.7497 60.8152 82.2793 61.6784 82.4342C61.7429 82.4342 61.8588 82.46 61.9104 82.4342C62.3613 82.047 62.2067 79.2205 62.1423 78.0073C62.1294 77.6717 62.3742 77.4007 62.7092 77.3749C63.0055 77.3749 63.3148 77.6072 63.3405 77.9427C63.508 81.1306 63.4565 82.6665 62.6963 83.3377C62.4515 83.5442 62.168 83.6603 61.833 83.6603V83.6474Z" fill="#677F69"/>
<path id="Vector_90" d="M47.7114 98.488C47.4408 98.488 47.196 98.4364 46.9899 98.3202C46.5131 98.0621 46.2168 97.7136 46.1137 97.2877C45.8947 96.423 46.5002 95.5195 47.2604 94.3837C47.982 93.3125 48.7937 92.0864 49.0772 90.6796C49.1416 90.3569 49.4508 90.1504 49.7858 90.2149C50.1079 90.2795 50.3141 90.6021 50.2497 90.9248C49.9147 92.551 48.9999 93.9449 48.2526 95.0549C47.7501 95.8034 47.1831 96.6553 47.2733 97.0038C47.2991 97.0941 47.3893 97.1844 47.5568 97.2748C47.6341 97.3135 47.8531 97.3264 48.2268 97.1715C49.4251 96.6424 50.9712 94.9129 51.5768 92.5897C51.667 92.2671 51.9891 92.0864 52.3112 92.1638C52.6333 92.2542 52.8137 92.5768 52.7364 92.8995C51.9891 95.7002 50.1208 97.6491 48.7035 98.2686C48.3556 98.4235 48.0206 98.5009 47.7114 98.5009V98.488Z" fill="#677F69"/>
<path id="Vector_91" d="M74.4213 101.497C74.1379 101.497 73.8157 101.432 73.4807 101.316C72.0377 100.774 70.0663 98.9282 69.1773 96.1791C69.0742 95.8694 69.2417 95.5338 69.5638 95.4305C69.8731 95.3273 70.208 95.4951 70.3111 95.8177C71.0455 98.0893 72.6819 99.7542 73.9059 100.206C74.2925 100.348 74.5115 100.322 74.5888 100.283C74.7563 100.18 74.8465 100.09 74.8594 99.9995C74.9238 99.6381 74.3182 98.825 73.7771 98.1022C72.9782 97.031 71.9861 95.7016 71.5738 94.0883C71.4965 93.7656 71.6769 93.4429 71.999 93.3655C72.3082 93.2881 72.6432 93.4687 72.7205 93.7914C73.0813 95.1724 73.9575 96.3469 74.7305 97.3923C75.5552 98.4894 76.1994 99.3541 76.019 100.232C75.9288 100.671 75.6582 101.032 75.1944 101.303C74.9754 101.432 74.7048 101.51 74.4213 101.51V101.497Z" fill="#677F69"/>
<path id="Vector_92" d="M61.021 102.991C60.9051 102.991 60.7762 102.991 60.6474 102.952C58.6245 102.578 58.3282 98.9643 58.7662 96.6412C58.8307 96.3185 59.1399 96.0991 59.462 96.1636C59.7841 96.2282 60.0032 96.5379 59.9387 96.8606C59.5264 99.0934 60.0032 101.623 60.8664 101.778C60.9308 101.791 61.0468 101.804 61.0983 101.778C61.5493 101.391 61.3947 98.5642 61.3303 97.351C61.3174 97.0155 61.5622 96.7444 61.8972 96.7186C62.2064 96.7057 62.5028 96.9509 62.5285 97.2865C62.696 100.474 62.6445 102.01 61.8843 102.681C61.6395 102.888 61.356 102.991 61.021 103.004V102.991Z" fill="#677F69"/>
<path id="Vector_93" d="M55.9962 92.6531C55.7514 92.6531 55.5581 92.5886 55.4164 92.524C55.0427 92.3304 54.8108 92.0465 54.7206 91.7109C54.5531 91.0398 55.0041 90.3687 55.5194 89.5943C55.9962 88.8844 56.5244 88.0842 56.7177 87.1678C56.7821 86.8452 57.1043 86.6387 57.4264 86.7032C57.7485 86.7677 57.9546 87.0904 57.8902 87.4131C57.6583 88.5488 57.0269 89.491 56.5244 90.2654C56.2668 90.6526 55.8802 91.2334 55.8931 91.4141C55.8931 91.4141 55.9189 91.4399 55.9833 91.4657C56.3569 91.5561 57.8773 90.4461 58.4185 88.4327C58.5087 88.11 58.8308 87.9293 59.1529 88.0068C59.475 88.0971 59.6554 88.4198 59.5781 88.7424C59.0627 90.6913 57.7485 92.0465 56.7564 92.4853C56.4729 92.6144 56.2281 92.6531 56.0219 92.666L55.9962 92.6531Z" fill="#677F69"/>
<path id="Vector_94" d="M67.0509 92.5396C66.8447 92.5396 66.5999 92.5009 66.3036 92.3847C65.2986 91.9717 63.9586 90.6423 63.4045 88.7063C63.3143 88.3837 63.4947 88.061 63.8168 87.9707C64.1261 87.8803 64.4611 88.061 64.5513 88.3837C65.1311 90.3842 66.6643 91.4554 67.0638 91.3522C67.1282 91.3135 67.1411 91.2876 67.1411 91.2876C67.1411 91.1199 66.7416 90.5391 66.484 90.1648C65.9557 89.4162 65.3115 88.474 65.0538 87.3512C64.9765 87.0285 65.1826 86.7058 65.5047 86.6413C65.8268 86.5639 66.149 86.7704 66.2134 87.093C66.4195 87.9965 66.9736 88.7838 67.4503 89.4936C67.9786 90.2551 68.4424 90.9263 68.2878 91.5845C68.2105 91.933 67.9786 92.204 67.6178 92.4105C67.4761 92.4879 67.2957 92.5525 67.038 92.5525L67.0509 92.5396Z" fill="#677F69"/>
</g>
</g>
</g>
</g>
</g>
</g>
</g>
<defs>
<clipPath id="clip0_0_1">
<rect width="500" height="198.128" fill="white"/>
</clipPath>
</defs>
</svg>
